<?xml version="1.0" encoding="UTF-8"?><svg id="a" xmlns="http://www.w3.org/2000/svg" viewBox="0 0 162.25 30"><defs><style>.c{fill:#1d70b8;}.d{fill:#0b0c0c;}.e{fill:#0b0c0c;}</style></defs><circle class="c" cx="113.57" cy="18.02" r="3.66"/><path class="d" d="M47.36,18.08c0,.93.12,1.82.35,2.68.23.86.58,1.61,1.06,2.27.47.66,1.08,1.18,1.82,1.58.74.4,1.61.6,2.63.6s1.79-.16,2.44-.47c.65-.31,1.17-.7,1.56-1.17.39-.47.66-.98.82-1.52.16-.54.23-1.05.23-1.51v-.21h-5.55v-3.34h9.82v11.89h-3.84v-2.54c-.27.42-.61.81-1.01,1.16-.4.35-.86.65-1.36.89-.5.25-1.06.44-1.66.58s-1.24.21-1.91.21c-1.58,0-2.99-.29-4.22-.86-1.23-.58-2.27-1.37-3.11-2.38s-1.48-2.19-1.92-3.54c-.44-1.35-.66-2.81-.66-4.37s.24-3.01.73-4.36c.49-1.36,1.19-2.54,2.09-3.54.9-1,1.99-1.8,3.27-2.38s2.71-.87,4.29-.87c1.03,0,2,.12,2.93.36.92.24,1.77.58,2.53,1.01.76.44,1.43.97,2.02,1.59.58.62,1.06,1.31,1.42,2.07l-3.84,2.16c-.23-.46-.5-.9-.82-1.29-.31-.4-.67-.74-1.08-1.03-.41-.29-.88-.51-1.4-.68-.52-.17-1.11-.25-1.76-.25-1.02,0-1.9.2-2.63.6-.74.4-1.34.93-1.82,1.58s-.83,1.41-1.06,2.28c-.23.86-.35,1.75-.35,2.67v.15Z"/><path class="d" d="M76.51,6.87c1.61,0,3.06.29,4.34.87s2.37,1.37,3.26,2.38,1.57,2.18,2.04,3.54.7,2.81.7,4.36-.23,3.02-.7,4.37c-.47,1.35-1.15,2.53-2.04,3.54s-1.98,1.8-3.26,2.38-2.73.86-4.34.86-3.07-.29-4.35-.86-2.36-1.37-3.25-2.38c-.89-1.01-1.57-2.19-2.04-3.54-.47-1.35-.7-2.81-.7-4.37s.23-3.01.7-4.36,1.15-2.54,2.04-3.54c.89-1,1.98-1.8,3.25-2.38s2.73-.87,4.35-.87ZM76.51,25.21c.95,0,1.78-.18,2.5-.54.72-.36,1.33-.85,1.82-1.49.49-.64.87-1.39,1.12-2.25.25-.87.38-1.82.38-2.84v-.12c0-1.02-.13-1.96-.38-2.84s-.63-1.63-1.12-2.26c-.49-.64-1.1-1.13-1.82-1.49-.72-.36-1.56-.54-2.5-.54s-1.79.18-2.51.54c-.73.36-1.33.85-1.82,1.49s-.86,1.39-1.11,2.26-.38,1.82-.38,2.84v.12c0,1.03.13,1.98.38,2.84.25.87.62,1.62,1.11,2.25.49.64,1.1,1.13,1.82,1.49.73.36,1.56.54,2.51.54Z"/><path class="d" d="M94.59,28.87l-6.13-21.7h4.92l4.19,16.31h.15l4.1-16.31h4.86l-6.13,21.7h-5.96Z"/><path class="d" d="M131.53,25.21c.64,0,1.23-.09,1.78-.28s1.02-.47,1.42-.85c.4-.38.71-.86.95-1.44.23-.58.35-1.26.35-2.05V7.14h4.31v14.1c0,1.21-.22,2.31-.66,3.28-.44.98-1.05,1.81-1.83,2.5-.78.69-1.71,1.22-2.79,1.59-1.08.37-2.26.56-3.54.56s-2.46-.19-3.54-.56c-1.08-.37-2.01-.9-2.8-1.59-.79-.69-1.4-1.52-1.84-2.5-.44-.98-.66-2.07-.66-3.28V7.14h4.34v13.45c0,.79.12,1.47.35,2.05.23.58.55,1.06.95,1.44s.87.66,1.42.85c.55.19,1.14.28,1.78.28Z"/><path class="d" d="M144.23,7.17h4.39v9.4l7.75-9.4h5.4l-7.54,8.62,8.02,13.07h-5.1l-5.73-9.73-2.8,3.13v6.6h-4.39V7.17Z"/><g id="b"><circle class="e" cx="10.08" cy="8.8" r="1.83"/><circle class="e" cx="5.16" cy="11.75" r="1.83"/><circle class="e" cx="1.91" cy="16.58" r="1.83"/><circle class="e" cx="21.75" cy="8.8" r="1.83"/><circle class="e" cx="26.66" cy="11.75" r="1.83"/><circle class="e" cx="29.91" cy="16.58" r="1.83"/><circle class="e" cx="15.92" cy="15.31" r="1.83"/><path class="e" d="M16.65,4.89c.09-.07.17-.15.24-.24l2.32,1.22v-3.42s-2.32.74-2.32.74c-.07-.09-.15-.17-.24-.24l.93-2.94h-3.36l.93,2.94c-.09.07-.17.15-.24.24l-2.32-.74v3.42s2.32-1.22,2.32-1.22c.07.09.15.17.24.24l-1.32,3.99c-.47,1.4.58,2.85,2.06,2.85h0c1.48,0,2.53-1.45,2.06-2.85l-1.32-3.99Z"/><path class="e" d="M18.57,18.94s-1.7,1.89-2.07,3.04c1.11-.04,2.11-.25,3.21-1.4l-.37,4.26c-1.01-1.42-2.2-2.03-2.85-1.91.07,1.53.23,3.37,2.9,3.62,1.87.16,3.37-.75,3.52-1.89.19-1.3-.99-2.17-1.87-.79-.69-2.27,1.22-3.02,2.45-1.62-.95-2.24-.92-3.83,1.18-5.44,1.51,2.01,1.3,3.66-.58,5.53,1.22-.67,3.11.04,2,2.31-.58-1.42-1.83-1.1-2.09.12-.17.86.35,1.87,1.48,2.08.93.17,2.37-.47,3.52-2.94-.65.02-1.21.34-1.95.85l1.21-4.02c.3,1.13.69,1.87,1.1,2.27.28-.81.24-1.4-.01-2.67l2.49.89c-1.32,1.81-2.61,4.34-3.66,8.77-3.71-.53-7.86-.83-12.26-.83h0c-4.4,0-8.55.3-12.26.83-1.05-4.43-2.33-6.96-3.66-8.77l2.49-.89c-.25,1.27-.29,1.85-.01,2.67.41-.4.8-1.14,1.1-2.27l1.21,4.02c-.73-.51-1.3-.83-1.95-.85,1.15,2.48,2.58,3.11,3.52,2.94,1.13-.21,1.66-1.22,1.48-2.08-.26-1.22-1.51-1.53-2.09-.12-1.11-2.28.78-2.99,2-2.31-1.87-1.87-2.08-3.53-.58-5.53,2.1,1.61,2.13,3.2,1.18,5.44,1.23-1.41,3.14-.65,2.45,1.62-.89-1.37-2.06-.51-1.87.79.16,1.13,1.65,2.05,3.52,1.89,2.68-.24,2.84-2.09,2.9-3.62-.66-.12-1.84.49-2.85,1.91l-.37-4.26c1.1,1.15,2.1,1.36,3.21,1.4-.37-1.15-2.07-3.04-2.07-3.04h5.31Z"/></g></svg>