<?xml version="1.0" encoding="UTF-8"?>
<svg id="Artwork" xmlns="http://www.w3.org/2000/svg" version="1.1" viewBox="0 0 3627.98 1000">
  <!-- Generator: Adobe Illustrator 29.2.1, SVG Export Plug-In . SVG Version: 2.1.0 Build 116)  -->
  <defs>
    <style>
      .st0 {
        fill: #0b0c0c;
      }
    </style>
  </defs>
  <circle class="st0" cx="2112.37" cy="500" r="99.12"/>
  <g>
    <path class="st0" d="M320.67,501.64c0,25.11,3.14,49.27,9.42,72.47,6.27,23.2,15.82,43.67,28.66,61.41,12.83,17.75,29.2,32.01,49.13,42.79,19.93,10.78,43.68,16.18,71.25,16.18s48.52-4.23,66.13-12.69c17.6-8.46,31.66-19.04,42.17-31.74,10.5-12.69,17.87-26.4,22.11-41.14,4.23-14.74,6.34-28.39,6.34-40.95v-5.73h-150.26v-90.48h265.72v321.81h-103.99v-68.79c-7.37,11.47-16.52,21.91-27.43,31.33-10.92,9.41-23.2,17.47-36.86,24.15-13.65,6.69-28.6,11.95-44.83,15.77-16.24,3.82-33.51,5.73-51.79,5.73-42.86,0-80.93-7.78-114.23-23.34-33.3-15.56-61.35-36.98-84.14-64.28-22.79-27.29-40.12-59.23-52-95.81-11.87-36.57-17.81-76.01-17.81-118.33s6.62-81.4,19.86-118.11c13.24-36.71,32.07-68.65,56.51-95.81,24.43-27.16,53.9-48.58,88.43-64.28,34.53-15.7,73.22-23.55,116.08-23.55,27.84,0,54.25,3.21,79.22,9.62,24.98,6.42,47.77,15.56,68.38,27.43,20.6,11.87,38.82,26.21,54.66,42.99,15.82,16.78,28.66,35.42,38.49,55.89l-104,58.54c-6.28-12.55-13.65-24.22-22.11-35.01-8.47-10.77-18.22-20.06-29.27-27.84-11.06-7.78-23.68-13.92-37.87-18.42-14.2-4.5-30.03-6.76-47.49-6.76-27.57,0-51.32,5.4-71.25,16.18-19.93,10.78-36.3,25.04-49.13,42.79-12.83,17.74-22.38,38.28-28.66,61.62-6.28,23.34-9.42,47.44-9.42,72.26v4.1Z"/>
    <path class="st0" d="M1109.49,198.25c43.67,0,82.84,7.85,117.51,23.55s64.08,37.12,88.24,64.28c24.15,27.16,42.58,59.1,55.27,95.81s19.03,76.09,19.03,118.11-6.34,81.76-19.03,118.33c-12.69,36.58-31.12,68.52-55.27,95.81-24.15,27.29-53.57,48.72-88.24,64.28-34.66,15.56-73.84,23.34-117.51,23.34s-83.19-7.78-117.71-23.34c-34.53-15.56-63.87-36.98-88.02-64.28-24.16-27.29-42.58-59.23-55.27-95.81-12.69-36.57-19.04-76.01-19.04-118.33s6.35-81.4,19.04-118.11,31.11-68.65,55.27-95.81c24.15-27.16,53.49-48.58,88.02-64.28,34.53-15.7,73.76-23.55,117.71-23.55ZM1109.49,694.48c25.66,0,48.25-4.84,67.76-14.54,19.51-9.68,35.97-23.13,49.33-40.32,13.38-17.2,23.48-37.53,30.3-61.01,6.82-23.47,10.24-49.13,10.24-76.97v-3.28c0-27.57-3.42-53.16-10.24-76.77-6.82-23.61-16.92-44.02-30.3-61.21-13.37-17.19-29.82-30.63-49.33-40.33-19.51-9.68-42.1-14.53-67.76-14.53s-48.31,4.85-67.97,14.53c-19.65,9.7-36.09,23.14-49.33,40.33-13.24,17.19-23.27,37.61-30.09,61.21-6.82,23.61-10.24,49.2-10.24,76.77v3.28c0,27.84,3.42,53.5,10.24,76.97,6.82,23.48,16.85,43.8,30.09,61.01,13.24,17.19,29.68,30.64,49.33,40.32,19.66,9.7,42.31,14.54,67.97,14.54Z"/>
    <path class="st0" d="M1598.87,793.56l-165.82-587.12h133.07l113.42,441.36h4.09l110.96-441.36h131.42l-165.82,587.12h-161.31Z"/>
    <path class="st0" d="M2598.5,694.48c17.19,0,33.23-2.52,48.1-7.57,14.88-5.05,27.71-12.69,38.49-22.93,10.77-10.24,19.31-23.19,25.59-38.9,6.27-15.69,9.41-34.18,9.41-55.47V205.62h116.69v381.59c0,32.76-5.93,62.38-17.79,88.85-11.86,26.48-28.36,49-49.5,67.56-21.14,18.57-46.3,32.89-75.47,42.99-29.18,10.09-61.09,15.15-95.72,15.15s-66.55-5.06-95.72-15.15c-29.19-10.1-54.41-24.43-75.69-42.99-21.28-18.56-37.84-41.07-49.71-67.56-11.86-26.47-17.79-56.1-17.79-88.85V205.62h117.51v363.99c0,21.29,3.14,39.78,9.41,55.47,6.28,15.71,14.81,28.66,25.59,38.9s23.61,17.88,38.49,22.93c14.88,5.05,30.92,7.57,48.11,7.57Z"/>
    <path class="st0" d="M2942.1,206.44h118.74v254.25l209.63-254.25h146.17l-203.9,233.37,217,353.75h-137.97l-155.18-263.27-75.75,84.75v178.52h-118.74V206.44Z"/>
  </g>
</svg>